<?xml version="1.0" standalone="no"?><!DOCTYPE svg PUBLIC "-//W3C//DTD SVG 1.1//EN" "http://www.w3.org/Graphics/SVG/1.1/DTD/svg11.dtd"><svg t="1511927789117" class="icon" style="" viewBox="0 0 1024 1024" version="1.1" xmlns="http://www.w3.org/2000/svg" p-id="6505" id="mx_n_1511927789119" xmlns:xlink="http://www.w3.org/1999/xlink" width="22" height="22"><defs><style type="text/css"></style></defs><path d="M835.3 263.13L738.632 103.56H285.368L188.7 263.13H28.66V920.44h966.68V263.13h-160.04z m-166.608 306.46c-25.092 42.626-156.53 127.984-156.53 127.984s-131.924-85.722-156.854-127.984c-12.482-21.156-21.334-44.506-19.868-75.192 2.602-54.322 42.362-99.184 91.056-99.184 50.064 0 85.504 39.872 85.504 39.872s37.59-39.872 85.502-39.872c48.696 0 88.454 44.862 91.056 99.184 1.47 30.684-7.356 53.942-19.866 75.192z" fill="#BBDCE3" p-id="6506"></path><path d="M597.502 395.212c-47.91 0-85.502 39.872-85.502 39.872s-35.44-39.872-85.504-39.872c-48.694 0-88.454 44.862-91.056 99.184-1.468 30.686 7.386 54.038 19.868 75.192 24.928 42.26 156.854 127.984 156.854 127.984s131.438-85.356 156.53-127.984c12.508-21.248 21.338-44.506 19.868-75.192-2.604-54.322-42.362-99.184-91.058-99.184" fill="#DE5E88" p-id="6507"></path><path d="M995.34 234.47h-105.028V156.616c0-15.826-12.832-28.66-28.66-28.66s-28.66 12.834-28.66 28.66v47.39l-69.848-115.294a28.66 28.66 0 0 0-24.512-13.808H285.368c-10.026 0-19.32 5.236-24.512 13.808l-88.302 145.756H28.66c-15.828 0-28.66 12.834-28.66 28.66v657.31c0 15.826 12.832 28.66 28.66 28.66h966.68c15.828 0 28.66-12.834 28.66-28.66V263.13c0-15.83-12.83-28.66-28.66-28.66z m-28.66 657.308H57.32V291.79h131.38c10.026 0 19.32-5.236 24.512-13.808l88.302-145.756h420.974l88.302 145.756a28.66 28.66 0 0 0 24.512 13.808h131.38v599.988h-0.002z" fill="" p-id="6508" class=""></path><path d="M801.286 593.862c-15.036-4.93-31.23 3.252-36.168 18.29a266.19 266.19 0 0 1-12.682 31.56C708.38 735.776 614.002 795.266 512 795.266c-146.882 0-266.382-119.498-266.382-266.38 0-146.886 119.498-266.382 266.382-266.382 15.828 0 28.66-12.834 28.66-28.66s-12.832-28.66-28.66-28.66c-178.488 0-323.702 145.214-323.702 323.702S333.51 852.586 512 852.586c62.252 0 122.714-17.724 174.854-51.246 50.742-32.626 91.3-78.576 117.286-132.882a322.97 322.97 0 0 0 15.436-38.424c4.936-15.04-3.248-31.234-18.29-36.172zM833.506 520.024a30.386 30.386 0 0 0-2.636-4.958 32.68 32.68 0 0 0-3.582-4.356 29.09 29.09 0 0 0-9.286-6.19 29.266 29.266 0 0 0-5.36-1.634 28.334 28.334 0 0 0-11.206 0 29.266 29.266 0 0 0-10.318 4.27 29.09 29.09 0 0 0-4.356 3.554 30.336 30.336 0 0 0-3.554 4.356c-1.032 1.58-1.92 3.242-2.636 4.958s-1.262 3.526-1.634 5.36c-0.372 1.86-0.574 3.754-0.574 5.618 0 1.862 0.2 3.754 0.574 5.588 0.372 1.834 0.918 3.64 1.634 5.36s1.604 3.382 2.636 4.956c1.032 1.548 2.236 3.04 3.554 4.36 1.318 1.318 2.78 2.522 4.356 3.55 1.548 1.032 3.21 1.92 4.958 2.636a28.242 28.242 0 0 0 10.948 2.178c1.892 0 3.754-0.174 5.618-0.544a30.318 30.318 0 0 0 5.36-1.634c1.72-0.716 3.382-1.604 4.93-2.636a27.216 27.216 0 0 0 4.356-3.55 28.802 28.802 0 0 0 7.854-25.88 29.244 29.244 0 0 0-1.636-5.362z" fill="" p-id="6509"></path><path d="M426.498 366.55c-63.714 0-116.284 55.554-119.684 126.476-2.012 42.096 12.624 72.168 23.81 91.122 26.984 45.748 142.95 122.53 165.924 137.458a28.64 28.64 0 0 0 15.616 4.626c5.432 0 10.862-1.542 15.608-4.622 22.894-14.868 138.476-91.37 165.62-137.482 11.178-18.99 25.806-49.094 23.796-91.104-3.396-70.92-55.968-126.474-119.684-126.474-35.702 0-66.122 16.824-85.18 30.744-18.768-14.018-48.896-30.744-85.826-30.744z m233.432 129.216c1 20.876-3.766 38.608-15.938 59.284-1.266 2.15-3.004 4.546-5.154 7.148-20.778 25.152-80.164 69.678-126.68 101.006-51.528-34.702-118.758-85.438-132.168-108.178-12.164-20.616-16.924-38.338-15.926-59.26 1.9-39.642 29.906-71.896 62.43-71.896 36.112 0 63.918 30.072 64.084 30.254a28.656 28.656 0 0 0 21.002 9.616c7.806 0.238 15.27-2.964 20.746-8.494 0.14-0.14 0.296-0.264 0.436-0.406 0.298-0.31 30.162-30.97 64.74-30.97 32.526 0 60.53 32.25 62.428 71.896z" fill="" p-id="6510"></path></svg>